<svg  viewBox="0 0 1464 272" fill="none" xmlns="http://www.w3.org/2000/svg">
					<path class="fill-current" d="M49.3698 6.89233H0V266.716H49.3698V6.89233Z"></path>
					<path class="fill-current" d="M576.517 96.9593C576.517 131.177 578.685 178.805 581.285 215.618L573.495 216.045C561.8 186.168 542.312 142.428 523.259 108.654L466.096 6.89258H395.513V266.717H441.848V177.512C441.848 143.294 439.68 88.7303 437.085 51.0637L444.874 50.1973C457.867 81.3719 476.058 122.082 490.343 148.493L557.037 266.717H621.986V6.89258H576.517V96.9593Z"></path>
					<path class="fill-current" d="M1391.67 164.085C1428.05 153.253 1448.84 126.41 1448.84 85.7049C1448.84 34.1712 1418.09 6.88916 1353.14 6.88916H1244.01V266.713H1293.37V169.284H1341.88L1406.4 266.713H1464V261.95L1391.67 164.085ZM1348.8 127.708H1293.37V48.4652H1349.67C1386.91 48.4652 1400.34 60.5826 1400.34 86.9982C1400.34 114.72 1382.58 127.708 1348.8 127.708Z"></path>
					<path class="fill-current" d="M92.5247 6.89282V178.809L180.432 266.716H352.348V94.8007L264.44 6.89282H92.5247ZM306.013 225.141H138.86V48.4682H306.013V225.141Z"></path>
					<path class="fill-current" d="M941.023 94.8007V266.716H1112.94L1200.85 178.809V6.89282H1028.93L941.023 94.8007ZM1154.51 225.141H987.358V48.4682H1154.51V225.141Z"></path>
					<path class="fill-current" d="M785.884 228.377C733.484 228.377 710.103 192.435 710.103 135.275C710.103 82.0089 733.484 43.4674 786.315 43.4674C822.742 43.4674 843.86 61.5109 853.636 94.8018H903.359C892.978 35.201 852.657 0.166992 787.182 0.166992C709.236 0.166992 660.733 51.2654 660.733 135.275C660.733 219.286 706.202 271.25 785.884 271.25C852.455 271.25 893.473 235.582 903.949 176.461H854.507C844.341 210.254 824.334 228.377 785.884 228.377Z"></path>
				</svg>